<svg width="112" height="112" viewBox="0 0 112 112" fill="none" xmlns="http://www.w3.org/2000/svg">
<circle cx="55.7965" cy="55.7965" r="54.2965" fill="#5175ED" stroke="white" stroke-width="3"/>
<path fill-rule="evenodd" clip-rule="evenodd" d="M77.8139 51.6136C77.289 49.9363 68.9535 41.084 65.7736 40.2143C63.6267 40.0295 61.4681 40.0295 59.3212 40.2143C55.6881 40.0576 52.0489 40.1198 48.4232 40.4007C47.1574 40.4007 44.5332 39.9347 43.4527 41.084C41.2038 43.1372 39.0703 45.3148 37.0621 47.6068C35.7689 48.963 34.6203 50.4516 33.6352 52.0485C33.0486 53.2909 34.1909 54.4712 35.0245 55.9311C35.8581 57.3909 39.8715 64.1622 43.6688 70.3122C46.046 74.2259 50.5225 78.5433 51.8192 80.4691C51.942 80.6751 52.1411 80.8235 52.3727 80.8817C52.6043 80.94 52.8494 80.9033 53.0541 80.7797C53.2588 80.6562 53.4063 80.4558 53.4642 80.2228C53.5221 79.9898 53.4856 79.7432 53.3628 79.5373C53.6147 74.7676 53.4287 69.9846 52.8071 65.2493C52.0702 61.932 51.0369 58.6885 49.7198 55.5583C53.6242 56.0699 57.578 56.0699 61.4823 55.5583C60.9114 56.946 60.2514 58.2948 59.5065 59.5962C57.8018 63.4099 56.4781 67.3845 55.5548 71.4615C55.498 71.5838 55.4658 71.7163 55.4599 71.8512C55.454 71.9861 55.4745 72.1208 55.5204 72.2477C55.5663 72.3746 55.6365 72.4912 55.7272 72.5908C55.8178 72.6904 55.9271 72.771 56.0487 72.8282C56.1703 72.8853 56.302 72.9177 56.4361 72.9236C56.5701 72.9296 56.7041 72.9089 56.8302 72.8627C56.9564 72.8166 57.0722 72.7459 57.1712 72.6547C57.2702 72.5635 57.3503 72.4535 57.4071 72.3312C60.0717 67.6711 62.146 62.6937 63.5816 57.5152C63.894 56.8363 64.1022 56.1137 64.1991 55.372C67.7186 54.9371 71.2072 54.4401 74.6649 54.1917C73.4609 56.8629 57.7776 77.5183 55.493 78.7297C55.2515 78.8574 55.0702 79.0764 54.9892 79.3385C54.9081 79.6006 54.9339 79.8844 55.0608 80.1274C55.1877 80.3705 55.4054 80.5528 55.6659 80.6343C55.9265 80.7159 56.2085 80.69 56.4501 80.5623C59.0125 79.2888 71.0219 64.1932 72.7817 61.9258C74.8501 59.0371 78.8327 55.0303 77.8139 51.6136ZM63.5199 43.5067C64.8474 43.5067 65.3105 43.5067 66.9467 44.8734C65.5609 46.5849 64.341 48.4259 63.3038 50.3712C61.7589 48.5962 60.1203 46.9061 58.395 45.3083C57.6306 44.7748 56.9081 44.1829 56.234 43.5378C57.1287 43.4913 58.0252 43.4913 58.9199 43.5378C60.4525 43.619 61.9885 43.6086 63.5199 43.5067ZM48.4232 43.8173C53.1467 43.8173 52.8071 43.3204 52.4366 44.0658C52.1896 44.3143 46.9104 49.6257 46.6017 50.278C46.2423 48.2429 45.6625 46.2535 44.8728 44.3454C45.9836 43.8372 47.2112 43.6439 48.4232 43.7863V43.8173ZM47.6514 56.2417C49.7198 70.0016 49.5655 63.0129 51.0474 76.835C46.7561 71.6789 46.5091 71.4615 37.4943 54.5333C37.4943 54.5333 36.7534 53.6636 36.4138 53.1045C37.0312 52.1416 38.7292 50.4644 39.501 49.5947C40.6602 48.2679 41.9083 47.0226 43.2366 45.8674C43.4529 48.0847 43.9084 50.2719 44.595 52.3901H39.995C37.2782 51.8621 37.1856 53.881 38.3279 54.2227L47.5896 55.2167C47.5588 55.6205 47.6514 55.9311 47.6514 56.0864V56.2417ZM48.5158 52.5144C49.7507 51.0545 53.795 48.0106 54.6903 46.8924C56.9749 48.6939 60.5252 51.9242 60.8648 52.4522C56.7499 52.6498 52.6273 52.6187 48.5158 52.3591V52.5144ZM65.4649 52.2348C66.2783 50.1903 67.3136 48.2423 68.5521 46.4264C70.6518 48.1418 72.6516 49.9774 74.5414 51.9242C71.4541 51.8621 68.3669 51.9242 65.4649 52.0795V52.2348Z" fill="white"/>
<path fill-rule="evenodd" clip-rule="evenodd" d="M30.9185 36.518C31.0577 36.7528 31.2839 36.9223 31.5474 36.9893C31.8108 37.0563 32.0899 37.0153 32.3232 36.8752C32.5566 36.7352 32.7251 36.5076 32.7917 36.2426C32.8583 35.9775 32.8175 35.6967 32.6783 35.462C32.1843 34.1885 31.783 32.9771 31.3199 31.7968C30.3916 30.1122 29.0117 28.7238 27.3373 27.7899C26.5964 27.4172 26.2877 28.1005 26.1333 28.2869C24.8675 30.0574 30.7024 36.2695 30.9185 36.518Z" fill="white"/>
<path fill-rule="evenodd" clip-rule="evenodd" d="M81.1172 36.3938C85.5011 31.4241 83.1857 34.9029 85.7481 29.2498C85.9951 28.6907 85.9951 28.318 85.9025 28.1627C85.8099 28.0074 85.4394 27.293 84.6985 27.6657C83.0241 28.5996 81.6441 29.988 80.7159 31.6725C80.1293 32.8528 79.728 34.0332 79.234 35.3067C79.0907 35.5579 79.0525 35.8561 79.1278 36.1357C79.203 36.4153 79.3856 36.6534 79.6354 36.7976C79.8851 36.9417 80.1815 36.9802 80.4594 36.9045C80.7373 36.8287 80.9739 36.645 81.1172 36.3938Z" fill="white"/>
<path fill-rule="evenodd" clip-rule="evenodd" d="M31.1345 60.7144C32.0607 60.7144 32.709 59.5651 31.5359 58.6333C30.0494 57.7519 28.3794 57.2308 26.658 57.1113C25.2379 57.1113 19.7117 57.3288 19.0634 58.5712C18.8473 58.9439 19.0634 59.2545 19.3412 59.6273C20.1748 60.528 29.4057 60.7144 31.1345 60.7144Z" fill="white"/>
<path fill-rule="evenodd" clip-rule="evenodd" d="M93.0649 58.447C89.7634 56.8459 85.9855 56.5467 82.4756 57.6083C81.8211 57.8354 81.1903 58.1267 80.5924 58.478C79.4501 59.3788 80.0367 60.5902 80.9938 60.5902C84.5233 60.8315 88.0689 60.5595 91.5213 59.7826C91.9498 59.7085 92.3728 59.6047 92.7871 59.472C93.0649 59.0371 93.0649 58.8197 93.0649 58.447Z" fill="white"/>
<path fill-rule="evenodd" clip-rule="evenodd" d="M35.0554 73.1698C30.9802 76.7107 32.7399 73.5114 25.1761 83.1092C24.9292 83.6373 25.1761 84.6933 26.5037 84.1653C30.5734 81.811 34.0325 78.5223 36.599 74.5675C36.7382 74.3565 36.7974 74.1021 36.7658 73.8508C36.7341 73.5995 36.6138 73.368 36.4266 73.1985C36.2395 73.0291 35.998 72.9329 35.7463 72.9277C35.4946 72.9224 35.2494 73.0083 35.0554 73.1698Z" fill="white"/>
<path fill-rule="evenodd" clip-rule="evenodd" d="M81.2408 76.2759C79.8824 75.0645 78.1536 74.1948 76.9804 73.0145C75.8072 71.8342 74.5106 73.4183 75.4368 74.4122C77.1748 76.805 79.0946 79.0585 81.1791 81.1524C81.7348 81.6805 85.5012 84.2585 86.2113 84.2585C86.9214 84.2585 87.1992 83.7926 86.8596 83.0782C86.8905 82.8297 82.1361 77.0524 81.2408 76.2759Z" fill="white"/>
</svg>
