<?xml version="1.0" encoding="UTF-8"?><svg id="Layer_28" xmlns="http://www.w3.org/2000/svg" viewBox="0 0 403.4 120.34"><defs><style>.cls-1{fill:#5175ed;}</style></defs><path class="cls-1" d="M41.39,1.06c22.97-2.02,48.04,2.84,59.35,26.74,5.56,11.74,7.34,28.94-5.9,35.53-25.96,12.91-37.51-29.86-53.32-42.89-9.32-7.69-8.73-.81-4.75,6.96,11.22,21.87,30.54,27.58,46.17,43.1,15.8,15.69,10.44,35.48-7.78,45.06-14.27,7.51-43.84,4.88-56.53-5.95-8.15-6.95-17.35-23.16-6.7-32,18.3-15.19,33.9,18.3,45.28,27.3,2.34,1.85,7.45,4.43,6.06-.89-1.2-4.62-16.72-17.74-21-21.01C24.15,69.16-2.85,60.72,1.19,30.67,3.72,11.9,25.8,2.43,41.39,1.06Z"/><path class="cls-1" d="M254.43,81.27c-1.33-.41-1.41,1.02-1.57,2.08-1.53,9.97.41,17.04-5.28,26.43-9.65,15.94-29.6,9.59-34.97-6.78-6.75-20.61,17.96-27.05,29.28-36.59-10.92-10.76-27.8-15.98-34.23-31.56-7.2-17.43,9.13-38,26.61-30.8,11.95,4.93,17.39,17.32,19.9,30.01,1.05,5.3.4,11.07,2.72,15.73,1.07,0,4.18-17.07,4.79-19.35,4.15-15.6,12.68-35.7,31.27-26.8,15.55,7.45,18.74,26.88,7.79,40.6-8.25,10.34-15.52,10.06-25.42,15.94-13.32,7.91,7.24,13.37,13.07,17.13,4.24,2.73,8.94,6.62,11,11.55,9.25,22.12-18.96,41.76-32.31,19.41-5.05-8.45-8.18-18.21-12.64-26.99Z"/><path class="cls-1" d="M349.76,1.74c15.38-1.45,46.18,1.98,51.05,21.23,4.83,19.1-15.79,24.63-28.97,18.04-9.43-4.71-12.94-13.47-20.32-19.49-9.58-7.82-13.47,8.98-11.17,17.06,4.63,16.21,25.74,5.09,36.42,5.88,10.16.75,15.1,8.13,13.96,18.72s-15.79,13.36-23.59,10c-5.35-2.31-13.05-13.69-18.67-10.32s-2.11,22.07-.51,27.79c8.4,30.17,16.76,1.07,24.26-8.37,14.52-18.27,37.77-4.06,29.42,17.36-5.95,15.27-35.33,18.5-48.77,17.62-24.12-1.57-37.77-12.77-44.25-37.47-9.22-35.16,2.82-74.45,41.14-78.05Z"/><path class="cls-1" d="M206.61,84.31c-.77-34.79-13.09-82.36-53.52-78.7-34.2,3.1-53.4,61.39-51.12,92.92,1.72,23.88,25.83,29.68,36.75,9.68,4.57-8.36,3.86-22.06,12.7-25.82,12.81-5.45,10.81,4.71,13.5,14.05,3.18,11.03,9.07,18.63,19.86,21,21.43,4.71,22.22-15.72,21.83-33.14ZM149.55,63.56c-8.98-4.9-7.24-25.23-3.69-33.27,1.26-2.85,4.55-7.89,7.74-8.6,7.22-1.61,10.12,13.12,10.5,18.11.67,8.87.72,32.08-14.54,23.75Z"/></svg>