<svg width="39" height="38" viewBox="0 0 39 38" fill="none" xmlns="http://www.w3.org/2000/svg">
<path fill-rule="evenodd" clip-rule="evenodd" d="M19.5012 0C30.2691 0 39 8.7218 39 19.481C39 28.0871 33.4143 35.3889 25.6635 37.9658C24.6883 38.1436 24.3811 37.5663 24.3811 37.05C24.3811 36.5872 24.3713 35.2939 24.3811 33.6682C29.8047 34.8458 30.9286 31.1023 30.9286 31.1023C31.8149 28.8518 33.0925 28.2527 33.0925 28.2527C34.8625 27.0446 32.9596 27.0678 32.9596 27.0678C31.003 27.2054 29.9717 29.0759 29.9717 29.0759C28.2321 32.051 25.4088 31.1912 24.2982 30.6944C24.1202 29.4352 23.6155 28.5766 23.0584 28.0895C27.3885 27.5975 31.9405 25.9267 31.9405 18.4617C31.9405 16.3342 31.181 14.5964 29.9339 13.2349C30.135 12.7429 30.8055 10.7616 29.7425 8.07881C29.7425 8.07881 28.1053 7.55516 24.3811 10.0772C22.8256 9.64489 21.1567 9.42934 19.4988 9.42203C17.8421 9.42934 16.1744 9.64489 14.6165 10.0772C10.8923 7.55638 9.2575 8.07881 9.2575 8.07881C8.19449 10.7616 8.86375 12.7429 9.06367 13.2349C7.81658 14.5964 7.05955 16.3342 7.05955 18.4617C7.05955 25.9462 11.6188 27.5927 15.9635 28.0737C15.2638 28.6765 14.6287 29.8456 14.6287 31.6625C14.6287 34.0981 14.6287 36.4143 14.6287 37.0549C14.6287 37.5761 14.3141 38.1521 13.3243 37.9633C5.58083 35.3828 0 28.0846 0 19.481C0 8.7218 8.73087 0 19.5012 0Z" fill="#5175ED"/>
</svg>
