<svg width="112" height="112" viewBox="0 0 112 112" fill="none" xmlns="http://www.w3.org/2000/svg">
<circle cx="55.7965" cy="55.7965" r="54.2965" fill="#5175ED" stroke="white" stroke-width="3"/>
<path fill-rule="evenodd" clip-rule="evenodd" d="M74.1441 81.7738C71.819 82.5932 69.556 83.5793 67.3729 84.7246C66.8138 85.0663 66.2547 85.4701 65.6956 85.8739C65.5625 85.7368 65.438 85.5915 65.3228 85.439C63.8746 84.0143 62.2819 82.7443 60.5705 81.6496C60.4665 81.5578 60.3455 81.4874 60.2142 81.4424C60.083 81.3975 59.9442 81.3788 59.8058 81.3874C59.6673 81.3961 59.532 81.4319 59.4074 81.4929C59.2828 81.5538 59.1714 81.6388 59.0796 81.7428C58.9878 81.8468 58.9174 81.9679 58.8725 82.0991C58.8275 82.2303 58.8088 82.3691 58.8174 82.5075C58.8261 82.646 58.8619 82.7814 58.9229 82.906C58.9839 83.0306 59.0688 83.1419 59.1728 83.2337C60.3221 84.6936 61.2539 86.3398 62.2789 87.8928L62.5584 88.3277L62.2789 88.5762C60.5493 90.3333 58.9603 92.2234 57.5266 94.2292C57.411 94.3395 57.319 94.472 57.2561 94.6188C57.1933 94.7656 57.1608 94.9237 57.1608 95.0834C57.1608 95.2431 57.1933 95.4012 57.2561 95.548C57.319 95.6948 57.411 95.8273 57.5266 95.9376C57.6363 96.0484 57.7669 96.1364 57.9109 96.1964C58.0548 96.2564 58.2093 96.2873 58.3652 96.2873C58.5212 96.2873 58.6756 96.2564 58.8195 96.1964C58.9635 96.1364 59.0941 96.0484 59.2039 95.9376C60.1978 95.0057 61.2228 94.1671 62.3099 93.3285C63.3971 92.4898 63.9872 92.086 64.8259 91.4959L65.1054 91.8375C66.3479 93.3595 67.6213 94.7883 68.8327 96.2792C68.9163 96.4118 69.0252 96.5266 69.1532 96.6171C69.2812 96.7076 69.4258 96.7719 69.5786 96.8065C69.7315 96.8412 69.8897 96.8453 70.0442 96.8188C70.1986 96.7923 70.3464 96.7356 70.4789 96.652C70.6115 96.5684 70.7263 96.4594 70.8168 96.3315C70.9073 96.2035 70.9716 96.0589 71.0063 95.9061C71.0409 95.7532 71.045 95.595 71.0185 95.4405C70.992 95.2861 70.9353 95.1383 70.8517 95.0058C70.0441 93.2353 69.2365 91.4338 68.2426 89.6633L67.9009 89.1663L68.6464 88.6383C70.6964 87.0231 72.6532 85.3148 74.8585 83.7617C74.9835 83.6992 75.0949 83.6124 75.1861 83.5065C75.2774 83.4006 75.3467 83.2776 75.39 83.1447C75.4334 83.0118 75.4499 82.8716 75.4386 82.7322C75.4274 82.5929 75.3885 82.4572 75.3244 82.3329C75.2189 82.1209 75.0451 81.9505 74.8311 81.8491C74.617 81.7477 74.3751 81.7212 74.1441 81.7738Z" fill="white"/>
<path fill-rule="evenodd" clip-rule="evenodd" d="M94.986 64.504C95.1104 64.4408 95.2211 64.3537 95.3119 64.2476C95.4026 64.1416 95.4716 64.0188 95.5148 63.8861C95.5581 63.7534 95.5748 63.6135 95.564 63.4744C95.5532 63.3353 95.5151 63.1996 95.4519 63.0752C95.3887 62.9508 95.3016 62.8401 95.1955 62.7493C95.0895 62.6586 94.9667 62.5896 94.834 62.5463C94.7013 62.5031 94.5614 62.4864 94.4223 62.4972C94.2831 62.508 94.1475 62.5461 94.0231 62.6093C91.6912 63.473 89.4277 64.5113 87.2518 65.7154C86.6635 66.0696 86.0934 66.4532 85.5435 66.8646C85.4362 66.706 85.3111 66.5601 85.1708 66.4298C83.7323 64.9759 82.1387 63.6844 80.4184 62.5782C80.2205 62.381 79.9524 62.2702 79.673 62.2702C79.3935 62.2702 79.1255 62.381 78.9275 62.5782C78.826 62.674 78.7451 62.7896 78.6898 62.9178C78.6346 63.046 78.606 63.1841 78.606 63.3237C78.606 63.4633 78.6346 63.6014 78.6898 63.7296C78.7451 63.8578 78.826 63.9733 78.9275 64.0691C80.1078 65.5601 81.0397 67.1752 82.0336 68.7593L82.3442 69.1942L82.0336 69.4427C80.3738 71.17 78.8572 73.0294 77.4987 75.0026C77.3832 75.1128 77.2911 75.2453 77.2283 75.3921C77.1654 75.539 77.133 75.697 77.133 75.8567C77.133 76.0164 77.1654 76.1745 77.2283 76.3213C77.2911 76.4681 77.3832 76.6007 77.4987 76.7109C77.7257 76.9366 78.0328 77.0633 78.3529 77.0633C78.673 77.0633 78.9801 76.9366 79.2071 76.7109C80.201 75.7791 81.195 74.9404 82.3132 74.1018C83.4314 73.2632 83.9904 72.8594 84.8291 72.2381L85.1086 72.6109C86.3511 74.1329 87.6556 75.717 88.8359 77.0526C89.0079 77.3166 89.2761 77.5033 89.5834 77.5729C89.8908 77.6424 90.2132 77.5895 90.4822 77.4253C90.7454 77.253 90.9334 76.9873 91.0084 76.6817C91.0833 76.3762 91.0396 76.0536 90.8859 75.7791C90.0473 74.0086 89.2397 72.2071 88.2458 70.4366C88.2458 70.4366 88.0284 70.126 87.9352 69.9396L88.6496 69.4116C90.6996 67.7654 92.6875 66.057 94.986 64.504Z" fill="white"/>
<path fill-rule="evenodd" clip-rule="evenodd" d="M78.8033 60.8388C79.2342 60.6924 79.6051 60.4087 79.8594 60.0313C80.1389 59.6896 80.5427 58.7267 80.667 58.5714C80.7912 58.4161 81.1329 57.5775 81.3192 57.0494C81.6774 56.0318 81.9782 54.9948 82.22 53.9434L82.6548 53.26C82.9667 52.1214 82.9667 50.9198 82.6548 49.7812C82.2821 47.7933 81.3503 45.3084 81.1639 44.3766C80.6048 42.3266 80.201 40.2145 79.673 38.1644C79.3313 36.7667 78.9586 35.4 78.5548 34.0023C77.623 30.4924 76.629 27.0447 75.4487 23.5969C75.3756 23.3229 75.1982 23.0883 74.9544 22.9432C74.7107 22.7982 74.42 22.7541 74.1442 22.8204C73.8964 22.9124 73.6806 23.0742 73.523 23.2863C73.5354 23.1636 73.5226 23.0396 73.4852 22.9221C73.4478 22.8045 73.3866 22.6959 73.3055 22.603C73.2144 22.4763 73.0977 22.3701 72.9631 22.2913C72.8284 22.2124 72.6788 22.1626 72.5237 22.145C72.3687 22.1275 72.2116 22.1426 72.0628 22.1894C71.9139 22.2361 71.7765 22.3135 71.6593 22.4166C69.7957 23.7522 67.9009 25.0568 65.9752 26.2992C63.3039 28.0697 60.4774 29.6848 57.7441 31.3621C55.9115 32.4803 54.1099 33.6917 52.2774 34.8099C50.2601 36.0617 48.3109 37.42 46.4379 38.8788C46.1147 39.1374 45.8584 39.4699 45.6908 39.8483C45.5232 40.2268 45.4492 40.64 45.475 41.0531L43.7978 44.6251C43.5326 45.204 43.3245 45.8073 43.1765 46.4266C43.0868 46.7427 43.071 47.0751 43.1302 47.3983C43.1895 47.7214 43.3222 48.0266 43.5182 48.2903C44.2475 49.0129 45.1133 49.5831 46.0652 49.9676C47.8871 50.5312 49.7596 50.9161 51.6561 51.1168C51.8233 51.1792 52.0025 51.2028 52.1801 51.186C52.3577 51.1691 52.5292 51.1122 52.6817 51.0195C52.8342 50.9268 52.9636 50.8008 53.0604 50.6509C53.1571 50.501 53.2186 50.331 53.2402 50.1539C53.3289 49.8532 53.2975 49.5299 53.1527 49.2519C53.0079 48.9738 52.7609 48.7628 52.4637 48.663C51.5319 48.2903 50.3205 47.7001 49.0781 47.0789C46.997 46.085 47.4319 46.7062 47.8357 42.7925L49.2334 43.0721C50.4137 43.3827 51.594 43.7243 52.7743 44.1281C53.9546 44.5319 55.8804 45.3084 57.5888 45.9297C57.3247 47.6037 56.8336 49.2339 56.1289 50.7751C55.0138 53.2181 53.6832 55.5569 52.1531 57.7638C50.569 60.3108 48.7364 62.8267 46.8417 65.3737C45.0246 67.8679 43.0753 70.263 41.0023 72.5488C38.2862 75.6337 35.1493 78.321 31.684 80.5314C31.4288 80.5624 31.1945 80.6882 31.0277 80.8838C30.8608 81.0794 30.7736 81.3306 30.7833 81.5875C30.783 81.7275 30.8114 81.866 30.8668 81.9946C30.9221 82.1232 31.0032 82.2391 31.1051 82.3351C31.207 82.4312 31.3274 82.5053 31.459 82.553C31.5907 82.6007 31.7307 82.621 31.8704 82.6125C34.8072 82.6831 37.7452 82.5378 40.6606 82.1776C42.6856 81.9849 44.6846 81.5789 46.6243 80.9663C49.2664 80.0263 51.7729 78.7417 54.0789 77.1458C56.3609 75.5312 58.4458 73.6547 60.291 71.5548C65.3931 65.4232 69.2922 58.3838 71.7836 50.8062L77.9957 53.5085L79.0207 53.8812C75.076 58.385 78.6169 57.6396 74.7033 56.3972C74.5627 56.3211 74.4084 56.2736 74.2494 56.2574C74.0904 56.2412 73.9297 56.2567 73.7767 56.3029C73.6237 56.3491 73.4813 56.4251 73.3578 56.5266C73.2343 56.628 73.1321 56.753 73.057 56.8941C72.9209 57.1764 72.8965 57.4997 72.9886 57.7992C73.0808 58.0987 73.2828 58.3524 73.554 58.5093C74.5174 59.35 75.5573 60.0987 76.6601 60.7457C77.3408 61.0303 78.1005 61.0633 78.8033 60.8388ZM70.2305 47.5448C70.084 47.485 69.9268 47.4553 69.7686 47.4574C69.6103 47.4595 69.454 47.4935 69.3091 47.5573C69.1642 47.621 69.0336 47.7133 68.9251 47.8285C68.8166 47.9438 68.7324 48.0797 68.6775 48.2282C68.567 48.5289 68.5801 48.8611 68.714 49.1522C68.8479 49.4432 69.0916 49.6694 69.3919 49.7812C66.8973 55.5641 63.6379 60.986 59.7009 65.9018C57.3284 68.8703 54.5946 71.531 51.563 73.8223C49.5717 75.3442 47.4148 76.6363 45.1334 77.6738C43.4887 78.4189 41.7711 78.9914 40.0083 79.3822C39.0144 79.6306 38.0204 79.6617 36.9023 79.817C40.0835 77.8477 43.0233 75.5125 45.6614 72.8594C47.9555 70.5025 50.0345 67.9453 51.8736 65.2184C53.0745 63.4224 54.1837 61.5667 55.1971 59.6585C56.601 57.1673 57.7858 54.5587 58.738 51.8623C59.3958 50.0093 59.8032 48.0768 59.9494 46.116C59.9589 45.9025 59.9088 45.6906 59.8045 45.504C59.7003 45.3175 59.5461 45.1637 59.3592 45.06C59.369 44.9201 59.3461 44.7799 59.2921 44.6505C59.2382 44.521 59.1548 44.406 59.0486 44.3145C57.3713 43.4137 55.694 42.513 53.9546 41.7054C52.9607 41.2084 51.9667 40.7736 50.8486 40.3698C52.4327 39.4379 54.2652 38.5061 54.6069 38.2887C57.713 36.1455 61.0986 34.0023 64.2047 31.7038C67.3108 29.4053 70.4169 26.9204 73.3055 24.3424C73.4561 24.1863 73.5632 23.9936 73.6161 23.7833C73.5885 23.9165 73.5885 24.0539 73.6161 24.1871C74.6412 29.1258 75.2002 34.0955 76.0389 39.0652C76.4116 41.2084 76.9086 43.3205 77.4056 45.4327L78.8033 50.1539L70.2305 47.5448Z" fill="white"/>
<path fill-rule="evenodd" clip-rule="evenodd" d="M29.696 38.8478C35.9082 40.6804 39.0143 37.419 39.0143 32.853C39.1119 31.3163 38.6352 29.798 37.6768 28.5928C36.7183 27.3876 35.3464 26.5813 33.8271 26.3303C32.3351 26.4086 30.8826 26.8375 29.5874 27.5822C28.2922 28.327 27.1908 29.3666 26.3725 30.6167C25.7558 31.5485 25.4506 32.652 25.5009 33.7683C25.5511 34.8846 25.9542 35.9561 26.6521 36.8288C27.4478 37.7846 28.506 38.4865 29.696 38.8478ZM30.193 32.1076C31.1375 31.0799 32.4357 30.4474 33.8271 30.3371C35.1317 30.3371 35.7529 31.7038 35.8771 33.0083C36.3741 37.3258 33.0817 37.2326 31.0938 36.5182C30.319 36.2696 29.6512 35.766 29.1991 35.0894C28.6089 33.9712 29.3544 32.9462 30.193 32.1076Z" fill="white"/>
<path fill-rule="evenodd" clip-rule="evenodd" d="M36.1877 56.1797C36.2883 54.6565 35.8246 53.1496 34.8851 51.9465C33.9455 50.7434 32.5959 49.9284 31.0937 49.6569C29.5691 49.6869 28.0752 50.0905 26.743 50.8325C25.4108 51.5744 24.281 52.6319 23.4528 53.9123C22.8404 54.8473 22.5405 55.9526 22.5963 57.0689C22.6521 58.1853 23.0608 59.2551 23.7634 60.1244C24.5864 61.0518 25.6682 61.7117 26.8694 62.0191C33.0505 64.007 36.1256 60.7456 36.1877 56.1797ZM26.3725 58.4161C25.6891 57.2979 26.3725 56.2729 27.2732 55.31C28.22 54.2806 29.5148 53.6388 30.9073 53.5085C32.2119 53.5085 32.8331 54.8751 32.9574 56.2108C33.6096 61.926 27.5528 60.435 26.3725 58.4161Z" fill="white"/>
</svg>
