<svg width="112" height="112" viewBox="0 0 112 112" fill="none" xmlns="http://www.w3.org/2000/svg">
<circle cx="55.7965" cy="55.7965" r="54.2965" fill="#5175ED" stroke="white" stroke-width="3"/>
<path fill-rule="evenodd" clip-rule="evenodd" d="M66.1374 83.2112H59.1177C57.6297 83.1387 56.1525 82.9229 54.707 82.5668C53.5036 82.0216 52.3501 81.3748 51.2593 80.6337C50.7596 80.4083 50.2231 80.2732 49.6752 80.2348C48.3396 80.2348 46.9108 81.4622 45.4509 82.1372C45.332 82.2177 45.1912 82.2608 45.0471 82.2608C44.903 82.2608 44.7622 82.2177 44.6433 82.1372C44.3327 81.9531 44.457 81.5542 44.457 81.1553C44.5627 79.7663 44.5627 78.3713 44.457 76.9823C44.4314 76.6815 44.326 76.3926 44.1515 76.1449C43.9771 75.8971 43.7396 75.6991 43.463 75.5708C43.143 75.4138 42.7806 75.3619 42.4286 75.4226C42.0766 75.4833 41.7534 75.6535 41.5062 75.9083C41.3198 76.0924 40.8228 77.3198 40.5743 77.78L38.7418 80.1427C37.8561 81.0814 36.8032 81.851 35.6357 82.4134C35.154 82.6534 34.6221 82.7785 34.0826 82.7785C33.5432 82.7785 33.0112 82.6534 32.5296 82.4134C31.6202 81.8942 30.8355 81.1864 30.2296 80.3389C29.6237 79.4913 29.2109 78.5241 29.0197 77.5039C30.9502 74.6028 32.5838 71.5192 33.8963 68.2986C34.4864 66.9178 35.0145 65.4756 35.4804 64.0335C35.9463 62.5913 36.2258 60.965 36.5054 59.6149C36.5054 59.6149 36.7228 57.958 36.816 57.3443C36.827 57.2218 36.827 57.0986 36.816 56.9761C36.8545 56.7836 36.8545 56.5855 36.816 56.3931C36.7657 56.1676 36.6692 55.9548 36.5323 55.7677C36.3955 55.5806 36.2212 55.4232 36.0203 55.3053C35.8194 55.1874 35.5962 55.1114 35.3644 55.0821C35.1326 55.0528 34.8972 55.0708 34.6728 55.135C32.0952 55.8002 29.8727 57.4139 28.4606 59.6456C26.4889 62.5903 25.254 65.9558 24.8576 69.4646C24.3967 72.4208 24.5553 75.4391 25.3235 78.3324C23.6137 80.7162 21.5019 82.792 19.0803 84.4692C18.9475 84.5426 18.8317 84.6426 18.7406 84.7629C18.6494 84.8831 18.5847 85.021 18.5509 85.1675C18.517 85.314 18.5146 85.4659 18.5439 85.6133C18.5732 85.7608 18.6334 85.9006 18.7208 86.0236C18.8082 86.1466 18.9207 86.2501 19.0512 86.3274C19.1816 86.4048 19.327 86.4542 19.478 86.4726C19.6289 86.4909 19.7821 86.4778 19.9276 86.434C20.0732 86.3901 20.2077 86.3167 20.3227 86.2182C22.481 84.8209 24.4264 83.1264 26.1 81.186C27.0347 83.2405 28.6284 84.9336 30.6349 86.0034C32.2598 86.7867 34.1256 86.9294 35.8531 86.4023C37.9717 85.7028 39.8602 84.452 41.3198 82.7816C41.5495 83.5809 42.0549 84.2756 42.7486 84.7454C43.1914 85.0615 43.6992 85.2776 44.236 85.3783C44.7727 85.4791 45.3253 85.462 45.8547 85.3284C46.7618 85.0086 47.6035 84.5306 48.3396 83.9169C48.7744 83.6407 49.085 83.2419 49.5199 83.2419C49.9547 83.2419 51.5078 84.3158 52.6259 84.8374C53.0407 85.049 53.4784 85.2137 53.9305 85.3284C55.5797 85.64 57.2525 85.8145 58.9313 85.85C61.2919 85.85 63.7147 85.85 66.0753 85.6352C66.237 85.6353 66.3971 85.6033 66.5461 85.5413C66.6952 85.4792 66.8301 85.3883 66.943 85.2739C67.0559 85.1596 67.1445 85.024 67.2035 84.8752C67.2625 84.7265 67.2908 84.5676 67.2867 84.4079C67.2731 84.1051 67.1494 83.8173 66.9383 83.5975C66.7271 83.3776 66.4428 83.2404 66.1374 83.2112ZM28.6781 70.1703C28.9974 67.272 29.9742 64.4822 31.5356 62.0083C31.8681 61.4712 32.253 60.9676 32.6849 60.5048C32.536 61.4448 32.3391 62.3767 32.0947 63.297C31.8221 64.656 31.4695 65.9982 31.0387 67.3167C30.3378 69.2271 29.5395 71.1012 28.647 72.9319C28.5956 72.0117 28.606 71.0892 28.6781 70.1703Z" fill="white"/>
<path fill-rule="evenodd" clip-rule="evenodd" d="M92.8808 30.0046C92.7706 29.8904 92.6381 29.7995 92.4912 29.7374C92.3444 29.6753 92.1864 29.6432 92.0266 29.6432C91.8669 29.6432 91.7089 29.6753 91.5621 29.7374C91.4152 29.7995 91.2827 29.8904 91.1725 30.0046C89.872 31.01 88.6471 32.1073 87.5073 33.2878C85.4883 35.2823 83.6247 37.3995 81.5747 39.4246C81.6832 39.1893 81.7021 38.9231 81.628 38.6751C81.5538 38.4271 81.3915 38.2138 81.1709 38.0745C79.4315 36.5403 77.7853 35.0061 75.9837 33.5026L73.6542 31.6922C72.8575 31.1044 72.0279 30.5615 71.1693 30.0659C69.4299 29.0227 67.6284 28.1635 65.8579 27.243C67.1935 23.254 68.6844 19.2957 70.1132 15.4909C70.2178 15.2258 70.2148 14.9311 70.1048 14.6682C69.9949 14.4052 69.7865 14.1943 69.5231 14.0794C69.2591 13.9774 68.9653 13.9813 68.7042 14.0902C68.4432 14.1991 68.2354 14.4044 68.1253 14.6624C66.2617 18.59 64.3359 22.6096 62.5965 26.7213C61.3851 29.4829 60.298 32.2752 59.4904 35.0675C59.4016 35.5309 59.4652 36.0103 59.672 36.4354C59.8788 36.8605 60.2179 37.2091 60.6397 37.4302L61.7889 38.0745L65.9821 40.2224L73.7784 44.7944C73.7784 46.8503 73.3746 49.8266 73.0019 52.8337C72.7223 55.1964 72.3496 57.4977 72.0079 59.216C72.0079 60.1366 72.0079 61.3333 71.542 61.1798C70.803 61.7073 69.9994 62.1404 69.1503 62.4686C67.6284 63.1129 65.7026 63.6346 63.7768 64.4017C59.3116 66.1467 54.6328 67.3022 49.8616 67.8383C49.2714 63.5425 47.8426 53.1712 47.8737 51.7597C47.793 50.6444 47.9442 49.5245 48.3182 48.4691C48.6921 47.4137 49.2808 46.4451 50.0479 45.6229C52.9737 42.9594 56.3902 40.876 60.1116 39.486C60.2447 39.4323 60.3657 39.353 60.4675 39.2527C60.5694 39.1524 60.6501 39.0332 60.7049 38.902C60.7598 38.7707 60.7878 38.63 60.7873 38.4879C60.7867 38.3459 60.7577 38.2054 60.7018 38.0745C60.6537 37.9415 60.5788 37.8194 60.4816 37.7158C60.3843 37.6122 60.2668 37.5292 60.1361 37.4718C60.0054 37.4144 59.8642 37.3838 59.7212 37.382C59.5782 37.3801 59.4363 37.4069 59.3041 37.4608C54.9646 38.4321 50.8799 40.2929 47.3146 42.9227C46.1009 44.0607 45.1526 45.4463 44.5358 46.983C43.9189 48.5197 43.6483 50.1706 43.7426 51.8211C43.7426 53.3553 46.0722 63.3584 47.035 67.4394L47.4078 69.0043C47.4078 69.4646 46.2275 73.5456 67.3178 67.3474C70.1386 66.724 72.749 65.3924 74.8966 63.4812C75.3058 62.929 75.5724 62.2865 75.6731 61.6094C75.9767 60.0404 76.1533 58.45 76.2012 56.8533C76.3565 53.4167 76.2012 49.2129 76.2012 46.1752H76.4186C76.7324 46.3662 77.0881 46.4798 77.4557 46.5065C77.8233 46.5332 78.192 46.4722 78.5307 46.3286C79.9113 45.4561 81.1831 44.4262 82.3201 43.2602C84.9603 40.652 87.1346 37.6143 89.5884 34.822C90.5357 33.659 91.5743 32.5714 92.6945 31.5695C92.9065 31.3717 93.0413 31.1065 93.0754 30.8205C93.1095 30.5344 93.0406 30.2455 92.8808 30.0046ZM79.8974 40.8668C77.3815 43.4443 79.183 43.4136 72.2564 39.0871C70.8898 38.228 69.461 37.3995 67.97 36.6017L63.6215 34.4845C64.0253 32.8889 64.5533 31.416 65.0503 29.6977C66.3238 30.8637 67.5352 32.0911 68.8708 33.1957C69.6473 33.8401 70.4238 34.4231 71.2314 34.9754C72.039 35.5277 72.8466 36.0801 73.7163 36.6017C75.7042 37.7984 77.7231 38.8723 79.7421 40.0076C79.987 40.1738 80.2876 40.2398 80.5807 40.1918L79.8974 40.8668Z" fill="white"/>
<path fill-rule="evenodd" clip-rule="evenodd" d="M53.8994 65.1688C54.6998 64.6027 55.376 63.8825 55.8873 63.0516C56.3532 62.3152 56.6949 62.0697 57.0987 61.3026C58.0305 59.4615 58.776 57.6205 59.5835 55.8101C66.448 57.5284 67.4109 53.0485 67.5662 51.6677C67.675 50.5607 67.4643 49.4459 66.9586 48.4522C66.453 47.4585 65.6729 46.6266 64.7086 46.0525C63.8229 45.531 62.8296 45.2132 61.8025 45.1229C60.7755 45.0326 59.741 45.172 58.776 45.5309C57.8495 45.9909 57.0543 46.6727 56.4629 47.5142C55.8716 48.3557 55.5028 49.33 55.3903 50.3483C55.2264 51.1842 55.3157 52.0494 55.6472 52.8354C55.9788 53.6214 56.5377 54.2932 57.254 54.7668C56.1047 56.2397 54.9244 57.6819 53.7752 59.2161L52.2842 61.3333C51.7609 62.1727 51.3928 63.0974 51.1971 64.0642C50.7933 66.2121 52.2221 66.2735 53.8994 65.1688ZM58.9934 51.2075C59.0626 50.8056 59.2211 50.4238 59.4574 50.0896C59.6937 49.7553 60.0019 49.4769 60.3601 49.2743C60.7757 49.1296 61.2178 49.0739 61.657 49.1109C62.0961 49.1479 62.5222 49.2769 62.907 49.4891C63.3144 49.6728 63.6613 49.9657 63.9084 50.3346C64.1556 50.7035 64.2929 51.1335 64.3048 51.5757C64.3048 53.3554 62.5964 54.6441 59.6146 52.8644C59.322 52.713 59.0965 52.4598 58.9818 52.1538C58.867 51.8478 58.8712 51.5106 58.9934 51.2075Z" fill="white"/>
</svg>
