<svg width="38" height="38" viewBox="0 0 38 38" fill="none" xmlns="http://www.w3.org/2000/svg">
<path fill-rule="evenodd" clip-rule="evenodd" d="M19 0C29.4864 0 38 8.51363 38 19C38 29.4864 29.4864 38 19 38C8.51363 38 0 29.4864 0 19C0 8.51363 8.51363 0 19 0ZM19 7.125C15.775 7.125 15.3706 7.13866 14.1039 7.19647C12.84 7.25414 11.9768 7.4549 11.2214 7.74844C10.4405 8.05192 9.77825 8.45797 9.11807 9.11814C8.45789 9.77832 8.05184 10.4406 7.74836 11.2214C7.45483 11.9768 7.25414 12.84 7.1964 14.1039C7.13866 15.3706 7.125 15.775 7.125 19C7.125 22.225 7.13866 22.6294 7.1964 23.8961C7.25414 25.16 7.45483 26.0232 7.74836 26.7786C8.05184 27.5594 8.45789 28.2217 9.11807 28.8819C9.77825 29.5421 10.4405 29.9482 11.2214 30.2516C11.9768 30.5451 12.84 30.7459 14.1039 30.8035C15.3706 30.8613 15.775 30.875 19 30.875C22.225 30.875 22.6294 30.8613 23.8961 30.8035C25.16 30.7459 26.0232 30.5451 26.7786 30.2516C27.5594 29.9482 28.2217 29.5421 28.8819 28.8819C29.5421 28.2217 29.9482 27.5594 30.2516 26.7786C30.5451 26.0232 30.7459 25.16 30.8035 23.8961C30.8613 22.6294 30.875 22.225 30.875 19C30.875 15.775 30.8613 15.3706 30.8035 14.1039C30.7459 12.84 30.5451 11.9768 30.2516 11.2214C29.9482 10.4406 29.5421 9.77832 28.8819 9.11814C28.2217 8.45797 27.5594 8.05192 26.7786 7.74844C26.0232 7.4549 25.16 7.25414 23.8961 7.19647C22.6294 7.13866 22.225 7.125 19 7.125ZM19 9.26465C22.1708 9.26465 22.5463 9.27675 23.7985 9.3339C24.9564 9.38674 25.5851 9.58016 26.0035 9.74277C26.5578 9.95815 26.9534 10.2155 27.3689 10.6311C27.7845 11.0466 28.0418 11.4422 28.2572 11.9965C28.4198 12.4149 28.6133 13.0436 28.6661 14.2015C28.7233 15.4537 28.7353 15.8292 28.7353 19C28.7353 22.1708 28.7233 22.5463 28.6661 23.7985C28.6133 24.9564 28.4198 25.5851 28.2572 26.0035C28.0418 26.5578 27.7845 26.9534 27.3689 27.3689C26.9534 27.7845 26.5578 28.0418 26.0035 28.2572C25.5851 28.4198 24.9564 28.6133 23.7985 28.6661C22.5465 28.7233 22.171 28.7353 19 28.7353C15.829 28.7353 15.4535 28.7233 14.2015 28.6661C13.0436 28.6133 12.4149 28.4198 11.9965 28.2572C11.4422 28.0418 11.0466 27.7845 10.631 27.3689C10.2155 26.9534 9.95815 26.5578 9.74277 26.0035C9.58016 25.5851 9.38667 24.9564 9.33382 23.7985C9.27668 22.5463 9.26465 22.1708 9.26465 19C9.26465 15.8292 9.27668 15.4537 9.33382 14.2015C9.38667 13.0436 9.58016 12.4149 9.74277 11.9965C9.95815 11.4422 10.2155 11.0466 10.631 10.6311C11.0466 10.2155 11.4422 9.95815 11.9965 9.74277C12.4149 9.58016 13.0436 9.38674 14.2015 9.3339C15.4537 9.27675 15.8292 9.26465 19 9.26465ZM19 12.902C15.6322 12.902 12.902 15.6322 12.902 19C12.902 22.3678 15.6322 25.098 19 25.098C22.3678 25.098 25.098 22.3678 25.098 19C25.098 15.6322 22.3678 12.902 19 12.902ZM19 22.9583C16.8139 22.9583 15.0417 21.1861 15.0417 19C15.0417 16.8139 16.8139 15.0417 19 15.0417C21.1861 15.0417 22.9583 16.8139 22.9583 19C22.9583 21.1861 21.1861 22.9583 19 22.9583ZM26.764 12.6611C26.764 13.4481 26.1259 14.0861 25.3389 14.0861C24.5519 14.0861 23.9139 13.4481 23.9139 12.6611C23.9139 11.8741 24.5519 11.2361 25.3389 11.2361C26.1259 11.2361 26.764 11.8741 26.764 12.6611Z" fill="#5175ED"/>
</svg>
