<svg width="38" height="38" viewBox="0 0 38 38" fill="none" xmlns="http://www.w3.org/2000/svg">
<path fill-rule="evenodd" clip-rule="evenodd" d="M19 0C29.4864 0 38 8.51363 38 19C38 29.4864 29.4864 38 19 38C8.51363 38 0 29.4864 0 19C0 8.51363 8.51363 0 19 0ZM13.0598 29.6779V14.84H8.12688V29.6779H13.0598ZM30.8441 29.6779V21.169C30.8441 16.6113 28.4106 14.4911 25.1656 14.4911C22.5491 14.4911 21.377 15.9302 20.7208 16.9409V14.84H15.7891C15.8545 16.2322 15.7891 29.6779 15.7891 29.6779H20.7207V21.3914C20.7207 20.9479 20.7526 20.5045 20.8833 20.1875C21.2392 19.3017 22.0513 18.3841 23.4138 18.3841C25.1976 18.3841 25.9122 19.7452 25.9122 21.739V29.6779H30.8441ZM10.6266 7.68535C8.93891 7.68535 7.83624 8.79492 7.83624 10.2492C7.83624 11.6729 8.90536 12.8131 10.5613 12.8131H10.5932C12.3132 12.8131 13.3838 11.6729 13.3838 10.2492C13.3519 8.79492 12.3133 7.68535 10.6266 7.68535Z" fill="#5175ED"/>
</svg>
