<svg width="122" height="128" viewBox="0 0 122 128" fill="none" xmlns="http://www.w3.org/2000/svg">
<path d="M-2.28878 93.616C-3.96606 92.6352 -5.42701 91.472 -6.64501 90.1324C-11.6753 84.6107 -13.0792 81.6921 -12.0679 74.1829C-11.1565 67.4291 -6.75653 60.8045 0.00152016 56.0124C5.85481 51.859 12.7133 49.4259 18.6794 47.4714C19.2454 47.2877 19.8129 47.1016 20.3789 46.9178C26.2307 45.0091 32.2816 43.0335 37.5782 40.3143C41.6088 38.2479 44.9118 31.8793 45.4682 27.231C46.1998 21.1153 42.6345 14.4717 36.9872 11.4234C33.2799 9.42598 28.6408 8.88787 24.2581 9.95061C18.4971 11.343 12.2951 17.4929 8.70107 22.9675C8.44619 23.3557 8.19716 23.7505 7.94663 24.1477C6.09937 27.0566 3.80299 30.6745 -0.480782 32.4836C-4.29037 34.0938 -8.75624 33.628 -12.2213 31.6017C-13.9305 30.6022 -15.3982 29.2195 -16.4211 27.5212C-19.5216 22.3815 -17.9143 15.4106 -12.8392 11.9829C-10.6071 10.4764 -7.51006 10.9749 -5.91658 13.0939C-4.3246 15.2152 -4.84135 18.1558 -7.07349 19.6622C-8.00886 20.2959 -8.38116 21.9055 -7.80789 22.8552C-7.23462 23.8049 -5.58394 24.3198 -4.53166 23.8768C-3.0951 23.2691 -1.86473 21.3281 -0.560286 19.2727C-0.284058 18.8359 -0.00688171 18.4028 0.272181 17.9773C4.77894 11.1094 12.7947 2.99608 21.7862 0.819454C28.6296 -0.837551 35.9516 0.0437658 41.8732 3.23315C46.3672 5.65208 50.0335 9.34349 52.4822 13.9057C54.9284 18.4664 55.9126 23.4494 55.3309 28.3144C54.8998 31.9068 53.46 35.9902 51.3788 39.5216C49.6672 42.4198 46.7088 46.3486 42.3148 48.6048C36.2992 51.6916 29.8546 53.7941 23.621 55.827C23.059 56.0099 22.4994 56.1942 21.9374 56.377C16.4345 58.181 10.6678 60.2198 5.95522 63.5636C1.32901 66.8421 -1.64827 71.1556 -2.22011 75.3991C-2.81066 79.7604 -2.69281 80.0803 0.858236 83.9809C3.1127 86.4542 7.07263 87.3769 10.0004 87.7186C18.0873 88.6579 27.0688 86.8679 35.2911 82.6747C41.718 79.3973 47.8137 74.739 53.9271 68.4279C55.8535 66.437 57.7653 64.2961 59.6159 62.2287C63.8931 57.44 68.3162 52.4889 73.7491 48.3729C80.022 43.6188 90.4902 38.9695 101.05 40.1742C107.618 40.9233 113.194 43.8881 117.175 48.7548C121.678 54.2606 123.091 61.1319 121.153 68.1059C118.813 76.5368 111.777 84.1579 103.224 87.5239C99.0496 89.1687 94.781 89.8671 90.6517 90.544C89.5868 90.719 88.5783 90.8854 87.5697 91.0676C79.4701 92.5208 71.5878 94.9922 64.1379 98.4114C56.5463 101.892 51.725 104.944 52.8615 108.511C53.5527 110.684 57.702 111.66 61.1478 111.317C64.3455 110.996 67.5579 110.072 70.9618 109.093C72.4492 108.664 73.9866 108.224 75.5488 107.825C80.2133 106.641 87.197 105.327 93.9184 107.6C97.3172 108.751 100.372 110.898 102.52 113.647C104.949 116.76 106.009 120.413 105.507 123.932C105.138 126.509 102.636 128.311 99.9208 127.955C97.2039 127.602 95.3019 125.222 95.6709 122.645C96.034 120.104 93.3426 117.401 90.6014 116.473C87.4759 115.418 83.5142 115.559 78.1348 116.927C76.7294 117.282 75.3378 117.685 73.8614 118.108C70.1647 119.173 66.3404 120.273 62.2058 120.686C57.8543 121.12 52.9234 120.379 49.1145 118.152C46.4598 116.6 44.3489 114.323 43.3597 111.219C42.1731 107.494 42.0995 101.921 48.4811 96.5133C52.0634 93.4769 56.722 91.3401 59.8012 89.9269C68.0353 86.1492 76.7481 83.4203 85.7037 81.8114C86.7901 81.6135 87.8838 81.4359 88.9407 81.2626C92.6994 80.6457 96.2505 80.0617 99.4043 78.8208C105.117 76.5732 109.999 71.2953 111.556 65.688C112.354 62.8091 112.618 58.5336 109.337 54.524C106.993 51.6569 103.813 49.9743 99.8864 49.528C93.6914 48.8199 85.8664 51.2605 79.9528 55.7421C75.2719 59.2879 71.3476 63.6781 67.1932 68.3295C65.2789 70.469 63.3035 72.6821 61.24 74.8115C54.3674 81.9076 47.421 87.1944 40.0033 90.9766C29.9927 96.08 18.9167 98.2441 8.81525 97.0693C4.5041 96.5685 0.751436 95.3939 -2.28878 93.616Z" fill="#F47C40"/>
</svg>
