<svg width="38" height="38" viewBox="0 0 38 38" fill="none" xmlns="http://www.w3.org/2000/svg">
<path fill-rule="evenodd" clip-rule="evenodd" d="M19 0C29.4864 0 38 8.51363 38 19C38 29.4864 29.4864 38 19 38C8.51363 38 0 29.4864 0 19C0 8.51363 8.51363 0 19 0ZM30.3788 13.2835C30.1057 12.2616 29.301 11.457 28.2792 11.1839C26.4268 10.6875 19 10.6875 19 10.6875C19 10.6875 11.5732 10.6875 9.7208 11.1839C8.69918 11.457 7.89428 12.2616 7.62115 13.2835C7.125 15.1357 7.125 19.0001 7.125 19.0001C7.125 19.0001 7.125 22.8645 7.62115 24.7165C7.89428 25.7384 8.69918 26.5433 9.7208 26.8163C11.5732 27.3125 19 27.3125 19 27.3125C19 27.3125 26.4268 27.3125 28.2792 26.8163C29.301 26.5433 30.1057 25.7384 30.3788 24.7165C30.875 22.8645 30.875 19.0001 30.875 19.0001C30.875 19.0001 30.875 15.1357 30.3788 13.2835ZM16.6249 22.5627V15.4376L22.7952 19.0001L16.6249 22.5627Z" fill="#5175ED"/>
</svg>
